<?xml version="1.0" encoding="UTF-8"?>
<svg version="1.1" xmlns="http://www.w3.org/2000/svg" width="512" height="512">
<path d="M0 0 C1.24784271 -0.00861557 2.49568542 -0.01723114 3.78134155 -0.02610779 C7.19283684 -0.04488644 10.60335848 -0.04567446 14.01483035 -0.03678632 C16.86766024 -0.03166472 19.72040363 -0.03897849 22.5732246 -0.04625839 C29.30589248 -0.06324149 36.03833363 -0.05970797 42.77099609 -0.04296875 C49.7058133 -0.02604934 56.64000096 -0.0418824 63.57474941 -0.07419163 C69.53930887 -0.10092306 75.50367278 -0.10815401 81.4682861 -0.09967655 C85.02604685 -0.0947575 88.58342897 -0.09690672 92.14114189 -0.11746407 C96.10996857 -0.13930048 100.07804157 -0.12038218 104.046875 -0.09765625 C105.21852707 -0.10934845 106.39017914 -0.12104065 107.59733582 -0.13308716 C114.63899577 -0.05106697 118.36150235 0.71245157 123.58813477 5.53344727 C125.55321214 7.77565805 127.30655401 10.09823607 129.02563477 12.53344727 C130.0673522 13.96534803 131.110391 15.39628814 132.15454102 16.82641602 C132.7064209 17.58744629 133.25830078 18.34847656 133.8269043 19.13256836 C136.97260176 23.42072873 140.2259585 27.62670193 143.46313477 31.84594727 C148.6176131 38.58698395 153.70244012 45.37243221 158.71313477 52.22094727 C163.79828455 59.16969296 169.02387645 65.99038496 174.33862305 72.76464844 C179.13205955 78.89524369 183.74663532 85.14541343 188.33813477 91.42797852 C192.88640241 97.63108461 197.58335863 103.70436691 202.33154297 109.75512695 C207.18973243 115.96806268 211.86993155 122.30102999 216.51831055 128.671875 C220.67034452 134.34411395 224.94954929 139.8969168 229.38964844 145.34692383 C232.58813477 149.32299313 232.58813477 149.32299313 232.58813477 151.53344727 C233.24813477 151.53344727 233.90813477 151.53344727 234.58813477 151.53344727 C234.85803223 150.95651123 235.12792969 150.3795752 235.40600586 149.78515625 C236.60509982 147.50113237 237.94831109 145.56331686 239.50219727 143.50610352 C240.09000977 142.72493164 240.67782227 141.94375977 241.28344727 141.13891602 C241.92024414 140.29973633 242.55704102 139.46055664 243.21313477 138.59594727 C243.87829102 137.71422852 244.54344727 136.83250977 245.22875977 135.92407227 C250.66330536 128.72889673 256.13207126 121.55964329 261.60424805 114.39306641 C266.1295683 108.46256129 270.61976407 102.50695335 275.08813477 96.53344727 C280.88431325 88.78487181 286.73471392 81.07941615 292.60766602 73.38891602 C297.13154289 67.45956283 301.62074164 61.50544853 306.08813477 55.53344727 C311.85641899 47.82446024 317.66178482 40.14491369 323.51318359 32.4987793 C327.03018101 27.90204346 330.52254407 23.28939491 333.97875977 18.64672852 C334.69813721 17.68629639 335.41751465 16.72586426 336.15869141 15.73632812 C337.53730657 13.89472976 338.90925145 12.04811304 340.2734375 10.19580078 C340.89677979 9.3662085 341.52012207 8.53661621 342.16235352 7.68188477 C342.97579224 6.58626221 342.97579224 6.58626221 343.80566406 5.46850586 C346.52509177 2.51628233 349.18786878 0.73724371 353.20125484 0.15313053 C354.14014333 0.15070064 355.07903181 0.14827074 356.04637146 0.14576721 C357.67181381 0.13091026 357.67181381 0.13091026 359.33009338 0.11575317 C361.09835732 0.12250565 361.09835732 0.12250565 362.90234375 0.12939453 C364.15164673 0.12253128 365.40094971 0.11566803 366.68811035 0.1085968 C370.10771374 0.09344395 373.52677146 0.09183131 376.94636798 0.09753919 C379.80419953 0.10063292 382.6619819 0.09453653 385.51980644 0.08850044 C392.2634088 0.07446071 399.00688446 0.07601176 405.75048828 0.08740234 C412.70055435 0.09888247 419.65023449 0.08480875 426.60024971 0.05800587 C432.57409549 0.03583275 438.54782026 0.02921511 444.52170426 0.03508228 C448.08666576 0.03844933 451.6513799 0.03605394 455.21630669 0.01883125 C459.19253484 0.00045935 463.16829016 0.01456592 467.14453125 0.03173828 C468.32134964 0.02207031 469.49816803 0.01240234 470.71064758 0.00244141 C476.98325585 0.0592188 480.84284204 0.28019381 485.58813477 4.53344727 C489.90313676 9.07555463 490.1047823 13.257902 490.31469727 19.24047852 C488.4720634 27.59177069 481.22055245 34.76468515 476.08813477 41.40844727 C470.80331505 48.29212305 465.58377036 55.21429827 460.46313477 62.22094727 C455.37683175 69.17213205 450.1481546 75.99377812 444.83325195 82.77124023 C440.09616659 88.83180655 435.52495988 95.00280216 430.9831543 101.21044922 C425.87733912 108.17570196 420.65424814 115.04716515 415.40893555 121.90771484 C411.4422175 127.09691987 407.49749119 132.30090347 403.58813477 137.53344727 C399.0039877 143.66917593 394.36501353 149.76144472 389.71313477 155.84594727 C384.47981229 162.69403091 379.31007668 169.58326287 374.21313477 176.53344727 C369.66736221 182.73159807 365.06656322 188.87201719 360.35766602 194.94750977 C355.9942617 200.58102076 351.69541972 206.26428575 347.38354492 211.93725586 C344.19350923 216.1300782 340.99596346 220.31695657 337.77563477 224.48657227 C337.22907227 225.19458984 336.68250977 225.90260742 336.11938477 226.63208008 C332.56277799 231.04835138 329.49150558 233.68728743 323.71313477 234.59594727 C318.37654146 234.82727941 314.773153 233.88810474 310.58813477 230.53344727 C307.25577773 227.12174839 304.43820415 223.34627204 301.58813477 219.53344727 C300.40382322 217.97440949 299.21888032 216.41585121 298.03344727 214.85766602 C292.17473465 207.12571399 286.38764146 199.33924465 280.71313477 191.47094727 C280.30264893 190.90593506 279.89216309 190.34092285 279.46923828 189.75878906 C275.94315096 184.82104061 274.81259149 180.58323194 275.58813477 174.53344727 C277.84883865 168.29416457 281.91115117 163.2096707 286.02563477 158.09594727 C287.28412152 156.50533467 288.54191819 154.91417587 289.79907227 153.32250977 C290.43296875 152.52361328 291.06686523 151.7247168 291.7199707 150.90161133 C294.57024091 147.28848783 297.36235922 143.63199651 300.15063477 139.97094727 C301.22873001 138.55816414 302.30685499 137.14540371 303.38500977 135.73266602 C303.91545898 135.03705566 304.4459082 134.34144531 304.99243164 133.62475586 C307.09510691 130.8690159 309.20186857 128.11641385 311.30859375 125.36376953 C316.74443099 118.26075326 322.16884106 111.14909214 327.58813477 104.03344727 C333.52452758 96.23884056 339.46876113 88.45032751 345.42407227 80.67016602 C347.62035202 77.80047922 349.81248259 74.92767768 352.00219727 72.05297852 C354.71556726 68.49119614 357.43967325 64.93784659 360.16918945 61.38842773 C361.44749733 59.71730192 362.7102132 58.0342769 363.97094727 56.34985352 C370.34407418 48.00178423 370.34407418 48.00178423 375.58813477 46.53344727 C380.4892601 45.90551607 384.96948536 45.85395444 389.46313477 48.09594727 C393.95525721 51.59980277 396.07613291 54.59054966 397.03735352 60.11547852 C397.51496695 67.70422528 395.2452098 71.76576717 390.58813477 77.53344727 C389.87270508 78.47446289 389.15727539 79.41547852 388.42016602 80.38500977 C386.7630228 82.56389628 385.09786917 84.73308706 383.41625977 86.89282227 C380.34564047 90.83828656 377.30975947 94.80988646 374.27563477 98.78344727 C373.16110154 100.24181889 372.0465178 101.70015192 370.93188477 103.15844727 C370.37629883 103.88547852 369.82071289 104.61250977 369.24829102 105.36157227 C367.64348383 107.46103767 366.03785561 109.5598719 364.43188477 111.65844727 C357.79038614 120.33785413 351.1608607 129.02629036 344.54125977 137.72241211 C340.83679136 142.58764964 337.12355799 147.44587309 333.39697266 152.29418945 C331.8115098 154.36166549 330.23409409 156.43504702 328.65844727 158.51000977 C326.55648818 161.27801618 324.42154433 164.01650543 322.26782227 166.74438477 C321.22816231 168.09027763 320.18907529 169.43661332 319.15063477 170.78344727 C318.65909912 171.39172363 318.16756348 172 317.66113281 172.62670898 C316.15218522 174.52456836 316.15218522 174.52456836 314.58813477 177.53344727 C315.46967375 181.70448742 317.93943725 184.26672033 320.58813477 187.53344727 C320.58813477 188.19344727 320.58813477 188.85344727 320.58813477 189.53344727 C325.33539386 185.10510193 329.12821337 180.08601951 333.02563477 174.90844727 C333.72865723 173.98056396 334.43167969 173.05268066 335.15600586 172.09667969 C340.31267663 165.27351677 345.38626819 158.39136175 350.4375 151.48999023 C354.95888686 145.33361754 359.62985011 139.30579523 364.34301758 133.2956543 C369.0823614 127.23219854 373.65546366 121.05805831 378.19970703 114.84765625 C383.23433896 107.97996283 388.38370434 101.20448024 393.55639648 94.44042969 C398.10006324 88.49580814 402.60723703 82.52550339 407.08813477 76.53344727 C412.97179494 68.66751219 418.90551949 60.84115691 424.87133789 53.03735352 C428.37873639 48.44651778 431.86421933 43.84026553 435.32885742 39.21704102 C435.74073807 38.66753784 436.15261871 38.11803467 436.57698059 37.55187988 C437.5808605 36.21252364 438.58452067 34.8730027 439.58813477 33.53344727 C430.18288373 33.1138692 420.78090977 32.79537544 411.36829948 32.60082817 C406.99564112 32.50737724 402.62943812 32.38104474 398.26049805 32.17553711 C378.10136772 30.27629669 378.10136772 30.27629669 360.3034668 37.34570312 C357.136265 40.99333366 354.84127639 44.88836694 352.76367188 49.23477173 C350.86634377 52.94485596 348.29827628 56.09565138 345.71313477 59.34594727 C344.7332528 60.65791333 343.75390248 61.9702771 342.77563477 63.28344727 C339.12529648 68.16600634 335.41656019 73.00361708 331.71313477 77.84594727 C326.55978156 84.58786379 321.47384815 91.37240661 316.46313477 98.22094727 C311.37798498 105.16969296 306.15239308 111.99038496 300.83764648 118.76464844 C296.65342026 124.11609044 292.59631425 129.54918829 288.58813477 135.03344727 C283.42270517 142.09961046 278.12620679 149.04545286 272.72827148 155.93530273 C266.90041992 163.38283001 261.23213386 170.94609317 255.58813477 178.53344727 C260.00978527 185.48945843 264.9549052 191.98896053 270.00708008 198.49145508 C280.20834619 211.66677777 290.20069672 224.99270479 300.04223633 238.43823242 C302.13626891 241.27635428 304.26614127 244.08688991 306.40209961 246.89355469 C309.75556274 251.53028005 309.0993043 257.03297512 308.58813477 262.53344727 C306.30810128 267.44428861 303.35151976 270.01165521 298.58813477 272.53344727 C292.6858117 274.20391606 287.89991145 273.44935265 282.58813477 270.53344727 C275.96570779 265.05185855 271.18506944 257.01597523 266.1484375 250.10644531 C262.01745844 244.43983516 257.78836845 238.86548881 253.46313477 233.34594727 C248.84200926 227.43676439 244.24264189 221.51329252 239.71313477 215.53344727 C238.93558838 214.517948 238.93558838 214.517948 238.14233398 213.48193359 C234.58813477 208.76599595 234.58813477 208.76599595 234.58813477 206.53344727 C233.92813477 206.53344727 233.26813477 206.53344727 232.58813477 206.53344727 C232.31807617 207.10909424 232.04801758 207.68474121 231.76977539 208.27783203 C230.56893337 210.57010051 229.22058162 212.54435673 227.68188477 214.62329102 C226.82143555 215.78924805 226.82143555 215.78924805 225.94360352 216.97875977 C225.33129883 217.80118164 224.71899414 218.62360352 224.08813477 219.47094727 C223.45520508 220.3255957 222.82227539 221.18024414 222.17016602 222.06079102 C218.68634011 226.75300278 215.16570663 231.41241694 211.58813477 236.03344727 C210.86367157 237.01841187 210.13920837 238.00337646 209.39279175 239.01818848 C207.46987601 241.54732804 205.41308035 243.67875953 203.09036255 245.84240723 C190.6394574 258.44450053 190.88039508 272.22220969 190.88165414 288.89112139 C190.90587211 292.81346047 190.96999639 296.73468328 191.03689337 300.65649605 C191.11030922 305.7840738 191.10604412 310.91165477 191.11160278 316.03967285 C191.13178671 324.63736942 191.20380975 333.23330563 191.31225586 341.83032227 C191.45092413 352.84046318 191.50614257 363.8493527 191.53423882 374.86026764 C191.55885515 384.37062193 191.61827671 393.88071143 191.68500757 403.39085197 C191.70524963 406.42879656 191.72142165 409.46674482 191.73730087 412.50471497 C191.76480724 417.28554624 191.81401097 422.06571289 191.87959671 426.84616852 C191.90073827 428.5927331 191.91541143 430.33939071 191.92289734 432.0860672 C191.99626548 447.23612414 194.46456567 458.08711039 205.24438477 469.24829102 C214.90078849 478.19868409 225.33546331 480.02201557 238.02563477 479.80688477 C249.55483059 479.32886803 258.09898633 473.49521545 265.83813477 465.28344727 C271.13335629 458.77873225 274.64769435 450.35675406 274.77568054 441.95715332 C274.79150681 441.04343964 274.80733307 440.12972595 274.82363892 439.18832397 C274.84181168 437.69530258 274.84181168 437.69530258 274.86035156 436.17211914 C274.87656052 435.11791779 274.89276947 434.06371643 274.9094696 432.97756958 C275.04970808 423.25227858 275.12780822 413.52609307 275.18838787 403.80001068 C275.22934105 397.27128407 275.28967925 390.74405921 275.39746094 384.21606445 C275.50144777 377.8959455 275.55583067 371.57716521 275.57584572 365.25624084 C275.59173447 362.85448055 275.62486386 360.45276682 275.6760006 358.05149841 C276.4719391 342.52656724 276.4719391 342.52656724 269.71386719 329.20507812 C268.04073955 327.60983997 266.33619201 326.04620525 264.58813477 324.53344727 C263.54404652 323.2829144 262.52927105 322.00644399 261.56469727 320.69360352 C257.95172331 315.93432055 254.32874097 311.19325518 250.58813477 306.53344727 C250.59182194 307.28367157 250.59550911 308.03389587 250.59930801 308.80685425 C250.68771751 327.07726424 250.7538728 345.34763144 250.79538345 363.61820984 C250.81599225 372.45380342 250.84408057 381.28925404 250.88989258 390.12475586 C250.92981198 397.82746987 250.95557981 405.53008032 250.96448874 413.2328949 C250.96969489 417.30999575 250.98189582 421.3868004 251.01105499 425.46380615 C251.03830497 429.30517176 251.04656059 433.14612054 251.04056549 436.98757362 C251.04166147 438.39361146 251.04955848 439.79966396 251.06495667 441.2056179 C251.15471928 449.8280571 251.09214836 456.90405428 244.76391602 463.40844727 C239.67482675 466.48110494 235.50657328 467.52352062 229.58813477 466.53344727 C224.31491324 464.70810135 221.79122391 461.92625523 218.58813477 457.53344727 C217.34198763 453.79500586 217.41127493 450.29676949 217.3828125 446.40063477 C217.3679801 445.14325453 217.3679801 445.14325453 217.35284805 443.86047268 C217.32099059 441.04316007 217.29628021 438.22583237 217.27172852 435.40844727 C217.25087086 433.39493993 217.22968912 431.38143594 217.20820618 429.36793518 C217.15160621 423.89720578 217.10213761 418.42643526 217.05509949 412.955616 C217.02570707 409.5418446 216.99518873 406.12808472 216.96447754 402.71432495 C216.81570422 385.98751586 216.69503893 369.26057249 216.58813477 352.53344727 C216.58036263 351.33616249 216.57259048 350.13887772 216.56458282 348.90531158 C216.46745451 333.82054253 216.39416912 318.7359181 216.35696411 303.65087891 C216.34587856 299.2865683 216.32801855 294.92236592 216.30441284 290.55810547 C216.27719101 285.42088777 216.26478855 280.28384657 216.26399803 275.14655876 C216.26137381 273.26524373 216.25369128 271.38392779 216.24053383 269.50265694 C216.22351878 266.93401544 216.22524599 264.36603797 216.23168945 261.79736328 C216.22247184 261.05682709 216.21325422 260.31629089 216.20375729 259.55331421 C216.24875757 253.9404511 217.33345248 249.09219612 221.12329102 244.79125977 C225.33703551 241.66597612 227.55132735 240.35786015 232.77563477 240.22094727 C233.69731445 240.18356445 234.61899414 240.14618164 235.56860352 240.10766602 C241.84211772 240.99228833 245.84338953 244.28604788 249.55493164 249.15063477 C250.19011719 250.02075195 250.19011719 250.02075195 250.83813477 250.90844727 C251.79093125 252.16650864 252.74406582 253.42431402 253.69750977 254.68188477 C254.17639648 255.32222656 254.6552832 255.96256836 255.14868164 256.62231445 C257.41426258 259.63028046 259.75275381 262.57958265 262.08813477 265.53344727 C263.00518998 266.69980854 263.92185587 267.86647603 264.83813477 269.03344727 C265.29188477 269.61094727 265.74563477 270.18844727 266.21313477 270.78344727 C267.58813477 272.53344727 268.96313477 274.28344727 270.33813477 276.03344727 C271.01839722 276.89921387 271.01839722 276.89921387 271.71240234 277.7824707 C272.63156789 278.95234742 273.55067572 280.1222695 274.46972656 281.29223633 C276.7226957 284.16015883 278.976572 287.02735717 281.23266602 289.89282227 C284.02198419 293.43643926 286.80596989 296.98421232 289.58813477 300.53344727 C290.17626953 301.28303711 290.7644043 302.03262695 291.37036133 302.80493164 C293.25786871 305.21255652 295.14209751 307.62271565 297.02563477 310.03344727 C297.61707275 310.78722656 298.20851074 311.54100586 298.81787109 312.31762695 C308.69905692 324.9866126 308.69905692 324.9866126 308.73530579 332.4181366 C308.74246109 333.42566483 308.74961639 334.43319305 308.75698853 335.47125244 C308.75967743 336.57612 308.76236633 337.68098755 308.76513672 338.81933594 C308.77170792 339.98400894 308.77827911 341.14868195 308.78504944 342.34864807 C308.80481041 346.21623804 308.81645625 350.08378896 308.82641602 353.95141602 C308.83046601 355.28803337 308.834583 356.62465053 308.8387661 357.96126747 C308.85782897 364.25212002 308.87204878 370.54296086 308.88037807 376.83383673 C308.89010726 384.06086084 308.91630779 391.28757512 308.95687896 398.51449031 C308.98724419 404.11900318 309.00186669 409.72342842 309.00515908 415.32802182 C309.00748965 418.66541189 309.0182168 422.00221149 309.04162025 425.33955956 C309.2033432 449.94681691 306.80552249 470.50710323 289.58813477 489.53344727 C288.91137695 490.30301758 288.23461914 491.07258789 287.53735352 491.86547852 C277.52202583 502.61318848 262.12593472 511.8874613 247.14331055 512.72631836 C243.46344054 512.81652927 239.78263304 512.85556822 236.10180664 512.88354492 C234.52711053 512.89996142 232.95248437 512.92705791 231.37817383 512.96557617 C212.52291048 513.42322819 196.78176077 507.49971096 182.28735352 495.13500977 C167.50845715 480.89080575 158.49683978 461.7760587 158.06001282 441.20414734 C158.01327627 437.67904514 158.01552484 434.15522615 158.02294922 430.62988281 C158.01259397 428.6734681 158.00059905 426.71706149 157.98710632 424.76066589 C157.95629468 419.49239061 157.95077617 414.22438996 157.95203805 408.95603538 C157.95120297 404.54474221 157.93892876 400.13350725 157.92708844 395.72223216 C157.89980553 385.31543469 157.89436195 374.9087788 157.90185547 364.50195312 C157.90911067 353.7855508 157.87558533 343.06980403 157.82279807 332.35354394 C157.77899376 323.12594887 157.76230288 313.89856565 157.76683396 304.67086822 C157.76915181 299.17085253 157.76091874 293.67136846 157.72576332 288.17145348 C157.69375878 283.00408174 157.69565531 277.83779875 157.72320747 272.67041206 C157.72765304 270.77983413 157.72026069 268.88918375 157.69986343 266.99871063 C157.59159406 256.23135608 157.75415324 248.73490521 165.58813477 240.53344727 C166.26175049 239.62216064 166.93536621 238.71087402 167.62939453 237.77197266 C168.17394287 237.06548584 168.71849121 236.35899902 169.27954102 235.63110352 C169.90683105 234.81359619 170.53412109 233.99608887 171.18041992 233.15380859 C171.83059082 232.30971436 172.48076172 231.46562012 173.15063477 230.59594727 C178.99675809 222.96965428 184.742107 215.27992517 190.41162109 207.52172852 C195.18802836 201.01324767 200.12680299 194.63979839 205.1472168 188.31787109 C205.70006348 187.61686279 206.25291016 186.91585449 206.82250977 186.19360352 C207.30945313 185.58137939 207.79639648 184.96915527 208.2980957 184.33837891 C209.62713459 182.47888146 210.62234764 180.60156579 211.58813477 178.53344727 C211.04624512 177.8412207 211.04624512 177.8412207 210.4934082 177.13500977 C203.67121169 168.41225188 196.89215005 159.66370303 190.27075195 150.78735352 C186.08021378 145.17428859 181.83896039 139.60095788 177.58813477 134.03344727 C172.41360883 127.25427105 167.26641456 120.45649925 162.16186523 113.62451172 C158.04918741 108.12830315 153.88249862 102.67422147 149.71313477 97.22094727 C144.55989213 90.47894098 139.47394058 83.69442579 134.46313477 76.84594727 C129.39734592 69.92538434 124.21660008 63.10878245 118.90795898 56.37255859 C118.38733887 55.71022217 117.86671875 55.04788574 117.33032227 54.36547852 C116.73219727 53.66116699 116.13407227 52.95685547 115.51782227 52.23120117 C113.86043163 49.91412545 112.91051564 48.04126857 111.81469727 45.45678711 C109.31750629 40.2932383 106.71069671 36.34607187 101.58813477 33.53344727 C90.17591655 30.93429263 78.06839452 31.95199338 66.46057129 32.43481445 C62.0772392 32.59967655 57.69243529 32.67180941 53.30688477 32.75219727 C44.72990466 32.92286915 36.16013606 33.19520747 27.58813477 33.53344727 C27.97557861 34.02897095 28.36302246 34.52449463 28.76220703 35.03503418 C42.46560465 52.57322383 42.46560465 52.57322383 48.58813477 61.03344727 C53.15208406 67.28429845 57.8108172 73.44419967 62.58813477 79.53344727 C67.91886889 86.33076383 73.08630535 93.23013384 78.18652344 100.20166016 C84.01384618 108.15170619 89.9962225 115.98028957 95.98266602 123.81079102 C99.39806046 128.2785577 102.77394773 132.77368824 106.13891602 137.27954102 C108.80233447 140.83115012 111.50367368 144.35368738 114.19995117 147.88037109 C121.39696315 157.29608084 128.49832968 166.77401844 135.50219727 176.33422852 C136.01169922 177.02726074 136.52120117 177.72029297 137.04614258 178.43432617 C138.11703102 179.89213156 139.18379973 181.35296867 140.24731445 182.81616211 C140.78001953 183.5414209 141.31272461 184.26667969 141.86157227 185.01391602 C142.33771973 185.66642334 142.81386719 186.31893066 143.30444336 186.99121094 C144.52742931 188.67032239 144.52742931 188.67032239 146.58813477 189.53344727 C146.95938477 188.72907227 146.95938477 188.72907227 147.33813477 187.90844727 C148.58813477 185.53344727 148.58813477 185.53344727 150.83813477 182.59594727 C152.93898723 179.75229284 152.93898723 179.75229284 151.96704102 177.20141602 C150.35727982 174.08677892 148.45272718 171.53420887 146.27563477 168.78344727 C145.36501683 167.62235087 144.45488437 166.46087361 143.54516602 165.29907227 C143.06257324 164.68612305 142.57998047 164.07317383 142.08276367 163.44165039 C139.51348685 160.1614368 136.99034096 156.84611023 134.46313477 153.53344727 C133.92390381 152.82800781 133.38467285 152.12256836 132.82910156 151.39575195 C127.7239218 144.71696169 122.63103241 138.02881281 117.53759766 131.34106445 C113.33048253 125.81786705 109.11872171 120.29826967 104.90063477 114.78344727 C104.37526123 114.09621582 103.8498877 113.40898438 103.30859375 112.70092773 C100.67219852 109.25336532 98.03182341 105.80895608 95.38500977 102.36938477 C89.4629462 94.6648918 83.61013256 86.91368835 77.83813477 79.09594727 C77.2291333 78.27239746 76.62013184 77.44884766 75.99267578 76.6003418 C75.4312085 75.83705566 74.86974121 75.07376953 74.29125977 74.28735352 C73.79271484 73.61003174 73.29416992 72.93270996 72.78051758 72.23486328 C69.61897471 67.72364456 70.0726951 62.86456613 70.58813477 57.53344727 C71.88157949 53.26352132 74.19161721 50.84273096 77.71313477 48.09594727 C82.11337244 45.91471357 86.80487869 45.56540735 91.58813477 46.53344727 C97.38921346 49.21693945 100.65538886 52.47993756 104.46313477 57.53344727 C105.2405603 58.53529053 105.2405603 58.53529053 106.03369141 59.55737305 C107.56565146 61.53929759 109.07973961 63.53355257 110.58813477 65.53344727 C111.35254883 66.54149414 112.11696289 67.54954102 112.90454102 68.58813477 C114.33989181 70.49664908 115.76942574 72.40954971 117.19360352 74.32641602 C120.03936604 78.15188716 122.93914197 81.93574717 125.83813477 85.72094727 C126.39194824 86.44427246 126.94576172 87.16759766 127.51635742 87.9128418 C128.64802721 89.39050812 129.77986407 90.86804651 130.91186523 92.34545898 C133.57647404 95.8234992 136.23881609 99.30327143 138.90063477 102.78344727 C139.6929248 103.81924927 139.6929248 103.81924927 140.5012207 104.87597656 C145.55573658 111.4864816 150.59749954 118.10668128 155.6394043 124.72680664 C159.31446641 129.55148544 162.99170753 134.37446555 166.67626953 139.19189453 C167.73356942 140.57456712 168.79006169 141.95785768 169.84570312 143.34179688 C172.59144614 146.93858725 175.35480539 150.52007984 178.14282227 154.08422852 C178.72974854 154.83929688 179.3166748 155.59436523 179.92138672 156.37231445 C181.03409137 157.8031367 182.15201694 159.22992202 183.27636719 160.65161133 C187.87212101 166.58038968 192.42427618 172.74621267 191.97094727 180.55102539 C190.59160644 187.69404037 185.52812451 193.52305934 181.08813477 199.03344727 C179.83685262 200.61185878 178.58687819 202.19130776 177.33813477 203.77172852 C176.3984082 204.95822998 176.3984082 204.95822998 175.43969727 206.16870117 C172.10181785 210.43171542 168.88355738 214.7841254 165.67211914 219.14282227 C155.64883673 232.65059341 155.64883673 232.65059341 148.58813477 234.53344727 C142.04014113 234.77288106 137.7782293 233.69075221 132.58813477 229.53344727 C130.20875768 226.76995549 128.12156377 223.82763099 126.02563477 220.84594727 C124.78349644 219.11971373 123.53997888 217.3944719 122.29516602 215.67016602 C121.67335449 214.80439941 121.05154297 213.93863281 120.41088867 213.04663086 C117.74240692 209.3673714 114.98632214 205.75909707 112.21313477 202.15844727 C111.6883252 201.47484131 111.16351563 200.79123535 110.62280273 200.08691406 C109.52722231 198.6598934 108.43118339 197.23322464 107.3347168 195.80688477 C98.99398926 184.95018155 90.6817 174.07611762 82.58813477 163.03344727 C75.05883699 152.7614487 67.32983809 142.64581572 59.58813477 132.53344727 C51.25759256 121.65192562 42.97422566 110.74571811 34.87231445 99.69262695 C27.9059783 90.2088119 20.74108862 80.87677934 13.58813477 71.53344727 C5.64950976 61.16385576 -2.27411955 50.78574064 -10.03686523 40.28344727 C-10.5926123 39.53369629 -11.14835938 38.78394531 -11.72094727 38.01147461 C-13.3013591 35.86371079 -14.85962469 33.70163685 -16.41186523 31.53344727 C-16.97534668 30.76540771 -17.53882813 29.99736816 -18.11938477 29.20605469 C-22.6151163 22.8571462 -23.69886773 18.31093646 -22.41186523 10.53344727 C-17.64185876 0.25958716 -10.18981866 -0.05665746 0 0 Z " fill="#000000" transform="translate(22.411865234375,-0.533447265625)"/>
</svg>
